<svg id="Search_icon" data-name="Search icon" xmlns="http://www.w3.org/2000/svg" width="21.39" height="20" viewBox="0 0 21.39 20">
  <rect id="Rectangle_10137" data-name="Rectangle 10137" width="21.39" height="20" fill="none"/>
  <path id="path" d="M15.153,1160.391l4.861,4.545-1.458,1.364-4.861-4.545v-.727l-.292-.273a6.453,6.453,0,0,1-4.084,1.364,6.081,6.081,0,0,1-4.472-1.727A5.8,5.8,0,0,1,3,1156.209a5.32,5.32,0,0,1,1.847-4.182A6.647,6.647,0,0,1,9.32,1150.3a6.237,6.237,0,0,1,4.472,1.727,5.8,5.8,0,0,1,1.847,4.182,5.558,5.558,0,0,1-1.458,3.818l.292.273h.681Zm-8.945-1.182a4.258,4.258,0,0,0,3.111,1.182,4.415,4.415,0,0,0,3.111-1.182,3.979,3.979,0,0,0,0-5.818,4.257,4.257,0,0,0-3.111-1.182,4.414,4.414,0,0,0-3.111,1.182,3.717,3.717,0,0,0-1.264,2.909A4.068,4.068,0,0,0,6.209,1159.209Z" transform="translate(-0.861 -1148.3)" fill="#666"/>
</svg>
