<?xml version="1.0" encoding="utf-8"?>
<svg version="1.1" xmlns:xlink="http://www.w3.org/1999/xlink" width="20px" height="32px" xmlns="http://www.w3.org/2000/svg">
  <g transform="matrix(1 0 0 1 -8 -1439 )">
    <path d="M 20.9576237921249 1439.5  C 20.9576237921249 1439.5  17.9519042319358 1441.90457564815  17.9519042319358 1441.90457564815  C 17.9519042319358 1441.90457564815  8.598029694901 1455  8.598029694901 1455  C 8.598029694901 1455  17.9519042319358 1468.09542435185  17.9519042319358 1468.09542435185  C 17.9519042319358 1468.09542435185  20.9576237921249 1470.5  20.9576237921249 1470.5  C 20.9576237921249 1470.5  27.5 1470.5  27.5 1470.5  C 27.5 1470.5  27.5 1439.5  27.5 1439.5  C 27.5 1439.5  20.9576237921249 1439.5  20.9576237921249 1439.5  Z " fill-rule="nonzero" fill="#ffffff" stroke="none" />
    <path d="M 20.9576237921249 1439.5  C 20.9576237921249 1439.5  17.9519042319358 1441.90457564815  17.9519042319358 1441.90457564815  C 17.9519042319358 1441.90457564815  8.598029694901 1455  8.598029694901 1455  C 8.598029694901 1455  17.9519042319358 1468.09542435185  17.9519042319358 1468.09542435185  C 17.9519042319358 1468.09542435185  20.9576237921249 1470.5  20.9576237921249 1470.5  C 20.9576237921249 1470.5  27.5 1470.5  27.5 1470.5  C 27.5 1470.5  27.5 1439.5  27.5 1439.5  C 27.5 1439.5  20.9576237921249 1439.5  20.9576237921249 1439.5  Z " stroke-width="1" stroke="#797979" fill="none" />
  </g>
</svg>