<?xml version="1.0" encoding="utf-8"?>
<svg version="1.1" xmlns:xlink="http://www.w3.org/1999/xlink" width="20px" height="32px" xmlns="http://www.w3.org/2000/svg">
  <g transform="matrix(1 0 0 1 -996 -1439 )">
    <path d="M 1003.04237620788 1439.5  C 1003.04237620788 1439.5  1006.04809576806 1441.90457564815  1006.04809576806 1441.90457564815  C 1006.04809576806 1441.90457564815  1015.4019703051 1455  1015.4019703051 1455  C 1015.4019703051 1455  1006.04809576806 1468.09542435185  1006.04809576806 1468.09542435185  C 1006.04809576806 1468.09542435185  1003.04237620788 1470.5  1003.04237620788 1470.5  C 1003.04237620788 1470.5  996.5 1470.5  996.5 1470.5  C 996.5 1470.5  996.5 1439.5  996.5 1439.5  C 996.5 1439.5  1003.04237620788 1439.5  1003.04237620788 1439.5  Z " fill-rule="nonzero" fill="#ffffff" stroke="none" />
    <path d="M 1003.04237620788 1439.5  C 1003.04237620788 1439.5  1006.04809576806 1441.90457564815  1006.04809576806 1441.90457564815  C 1006.04809576806 1441.90457564815  1015.4019703051 1455  1015.4019703051 1455  C 1015.4019703051 1455  1006.04809576806 1468.09542435185  1006.04809576806 1468.09542435185  C 1006.04809576806 1468.09542435185  1003.04237620788 1470.5  1003.04237620788 1470.5  C 1003.04237620788 1470.5  996.5 1470.5  996.5 1470.5  C 996.5 1470.5  996.5 1439.5  996.5 1439.5  C 996.5 1439.5  1003.04237620788 1439.5  1003.04237620788 1439.5  Z " stroke-width="1" stroke="#797979" fill="none" />
  </g>
</svg>